<svg width="30" height="30" viewBox="0 0 30 30" fill="none" xmlns="http://www.w3.org/2000/svg">
<path d="M2.25 0C1.00736 0 0 1.221 0 2.72727C0 4.23345 1.00736 5.45455 2.25 5.45455H27.75C28.9926 5.45455 30 4.23345 30 2.72727C30 1.221 28.9926 0 27.75 0H2.25ZM2.25 12.2727C1.00736 12.2727 0 13.4937 0 15C0 16.5062 1.00736 17.7273 2.25 17.7273H27.75C28.9926 17.7273 30 16.5062 30 15C30 13.4937 28.9926 12.2727 27.75 12.2727H2.25ZM2.25 24.5455C1.00736 24.5455 0 25.7665 0 27.2727C0 28.7789 1.00736 30 2.25 30H27.75C28.9926 30 30 28.7789 30 27.2727C30 25.7665 28.9926 24.5455 27.75 24.5455H2.25Z" fill="white"/>
</svg>
